<mxfile host="app.diagrams.net" modified="2023-06-13T11:06:00.297Z" agent="Mozilla/5.0 (Macintosh; Intel Mac OS X 10_15_7) AppleWebKit/537.36 (KHTML, like Gecko) Chrome/114.0.0.0 Safari/537.36" version="21.3.8" etag="KPIr8pGoD1Efx1-Ft4dz" type="github">
  <diagram name="Page-1" id="9WOMrFlPKJNOL43N_JZb">
    <mxGraphModel>
      <root>
        <mxCell id="0" />
        <mxCell id="1" parent="0" />
      </root>
    </mxGraphModel>
  </diagram>
</mxfile>
